<svg xmlns="http://www.w3.org/2000/svg" viewBox="0 0 200 200"><defs><style>.cls-1{fill:#fff;}</style></defs><title>Middel 6</title><g id="Laag_2" data-name="Laag 2"><g id="Laag_1-2" data-name="Laag 1"><path class="cls-1" d="M35,93V74H13.83a89.74,89.74,0,0,0-3.56,19Z"/><path class="cls-1" d="M21,143H35V118H60V99H16v33h-.12A91.39,91.39,0,0,0,21,143Z"/><path class="cls-1" d="M60,174H48.84A89.73,89.73,0,0,0,60,180.61Z"/><path class="cls-1" d="M85,149H60V124H41v43.91l.1.09H85Z"/><path class="cls-1" d="M62.92,18H85V11.26A88.94,88.94,0,0,0,62.92,18Z"/><polygon class="cls-1" points="135 149 110 149 110 124 91 124 91 148 91 168 135 168 135 149"/><path class="cls-1" d="M116,45V68h19V43h25V33a90.79,90.79,0,0,0-11.84-9H116Z"/><polygon class="cls-1" points="66 46 66 68 85 68 85 43 110 43 110 24 66 24 66 46"/><polygon class="cls-1" points="141 49 141 71 141 93 166 93 185 93 185 74 160 74 160 71 160 70.05 159.99 67.05 160 67.05 160 49 141 49"/><polygon class="cls-1" points="135 93 135 74 110 74 110 49 91 49 91 71 91 93 110 93 116 93 135 93"/><polygon class="cls-1" points="85 99 66 99 66 119 66 143 85 143 85 118 110 118 110 99 91 99 85 99"/><polygon class="cls-1" points="41 49 41 93 60 93 66 93 85 93 85 74 60 74 60 49 41 49"/><path class="cls-1" d="M35,149H24.54A91.29,91.29,0,0,0,35,162.19Z"/><path class="cls-1" d="M110,174H66v9.32a89.8,89.8,0,0,0,44,6.12Z"/><path class="cls-1" d="M0,0V200H200V0ZM100,196A96,96,0,0,1,50,18.08V18h.13a95.82,95.82,0,0,1,99.74,0H150v.08A96,96,0,0,1,100,196Z"/><path class="cls-1" d="M19.25,68H35V43H60V24H51.84A90.51,90.51,0,0,0,16.08,67.49Z"/><path class="cls-1" d="M160,151V124H141v44h17.9a90.81,90.81,0,0,0,15.21-17Z"/><path class="cls-1" d="M166,43V67l17.74,0A90.42,90.42,0,0,0,166,38.88Z"/><polygon class="cls-1" points="160 117 160 99 141 99 135 99 116 99 116 121 116 143 135 143 135 118 160 118 160 117"/><path class="cls-1" d="M186.75,124H185V99H166v46h11.92A89.79,89.79,0,0,0,186.75,124Z"/><path class="cls-1" d="M130,18h7.08q-3.47-1.58-7.08-2.85Z"/><path class="cls-1" d="M91,18h33V13.25a90.24,90.24,0,0,0-33-2.8Z"/><path class="cls-1" d="M151.16,174H116v14.57A89.6,89.6,0,0,0,151.16,174Z"/></g></g></svg>