<svg xmlns="http://www.w3.org/2000/svg" viewBox="0 0 662.22 200"><defs><style>.cls-1{fill:#fff;}</style></defs><title>Middel 7</title><g id="Laag_2" data-name="Laag 2"><g id="Laag_1-2" data-name="Laag 1"><path class="cls-1" d="M409.88,90a10.34,10.34,0,0,0-6.34-1.88q-7.77,0-14.51,7.81t-6.73,16.88q0,8,8.38,8h3.79q6.87,0,9.07-4.94L411,99.2a12.52,12.52,0,0,0,1.4-4.67A5.58,5.58,0,0,0,409.88,90Z"/><path class="cls-1" d="M68.8,106q-19.74,13.56-19.75,30.63A20.77,20.77,0,0,0,55.29,152a21.12,21.12,0,0,0,15.51,6.2q21.54,0,35.41-30.81l15.16-33.5H116Q86.46,93.9,68.8,106Z"/><path class="cls-1" d="M0,0V200H662.22V0ZM179.87,90.18a17.13,17.13,0,0,1-11.22,3.72H148.1l-19.35,43Q108.6,181.47,69.1,181.47q-20.64,0-34.21-12a38.62,38.62,0,0,1-13.56-30.22,50.58,50.58,0,0,1,8-27.12A71.53,71.53,0,0,1,51.85,89.86,106.26,106.26,0,0,1,80.43,77.47a118.28,118.28,0,0,1,32.16-4.58l14.07-.36,4.38-.09,19.15-43.38,1.1-2.52q2.29-5.57,5.84-7.4t11.92-1.85h51.17q13.86,0,13.86,8.81A11.17,11.17,0,0,1,229.49,35a17.12,17.12,0,0,1-11.17,3.73H173L157.78,72.44h15.46q11.16,0,11.17,8.62A11.42,11.42,0,0,1,179.87,90.18Zm68.32,46.65q-4.44,3.06-12.42,3.06H219.92q-8.79,0-13.82-3.23a10,10,0,0,1-5-8.81,19.14,19.14,0,0,1,2.1-7.54l16.46-36.46,1.09-2.52q4.59-10.15,14.76-10.15a11,11,0,0,1,7.24,2.52,7.58,7.58,0,0,1,3,6c0,1.92-.9,4.85-2.69,8.81l-14.27,31.79h11.27q12.57,0,12.57,8A9.76,9.76,0,0,1,248.19,136.83Zm3.59-73a15.08,15.08,0,0,1-19.65,0,11.7,11.7,0,0,1,0-17.69,15.08,15.08,0,0,1,19.65,0,11.7,11.7,0,0,1,0,17.69Zm98.7,73q-4.49,3.06-12.37,3.06H317.26A15.84,15.84,0,0,1,307,136.57a10.29,10.29,0,0,1-4.14-8.36c0-2,.93-5.09,2.8-9.16l8.77-19.58a14.64,14.64,0,0,0,1.5-4.94,4.23,4.23,0,0,0-2-3.68,8.5,8.5,0,0,0-5.23-1.53q-10.28,0-16.56,13.92l-11.77,26.05q-5.29,11.85-15.76,11.86a11.45,11.45,0,0,1-7.28-2.34,7.06,7.06,0,0,1-3-5.75,15.12,15.12,0,0,1,1.59-6l1.1-2.42,20.15-44.73q3.89-8.7,13.26-8.71,7.68,0,11,6.11,10.67-7.37,20.34-7.37,9.38,0,15.46,4.85a15.09,15.09,0,0,1,6.09,12.31,22.45,22.45,0,0,1-2.2,9.07l-10.87,24.16h12q12.66,0,12.67,8A9.73,9.73,0,0,1,350.48,136.83Zm117.1-106-1.2,2.42-39.2,87h11.37q12.68,0,12.67,8a9.73,9.73,0,0,1-4.49,8.53q-4.49,3.06-12.37,3.06H420.9q-7.78,0-11.37-5.75-6.39,5.75-13.67,5.75H383.2q-11.08,0-17.71-6.83t-6.63-18.14q0-17.33,13.11-31.16t29.48-13.84q12.06,0,19.25,7.82l22.24-49.13Q448.63,16,458.8,16a11,11,0,0,1,7.28,2.47,7.54,7.54,0,0,1,3,6.06A16.21,16.21,0,0,1,467.58,30.86Zm92.31,105.66q-4.85,3.38-13.61,3.37H528.12q-11,0-16.65-3.82A12.53,12.53,0,0,1,505.78,125q0-5.12,4.09-14.28l20-44.37Q536,52.86,536,47.83q0-4-4.09-7.23a14.86,14.86,0,0,0-9.37-3.19q-10,0-18.06,7.77T496.4,62.56c0,3.71.92,6.59,2.75,8.62s5.17,3.92,10,5.66q6.48,2.34,6.48,8a10.4,10.4,0,0,1-4.33,8.58,17.11,17.11,0,0,1-10.83,3.37q-12.47,0-21.34-9.57a32.52,32.52,0,0,1-8.88-22.94q0-19.5,16.36-34.13a55.34,55.34,0,0,1,38.1-14.64q16.37,0,27.28,8.62t10.92,21.46q0,9.26-5.18,20.75l-23.54,52.09H551q13.77,0,13.77,8.62A10.86,10.86,0,0,1,559.89,136.52Zm76.55-48.81q-4.49,3-12.36,3.05h-7.29l-13.36,29.55H614.6q12.66,0,12.67,8a9.76,9.76,0,0,1-4.44,8.53q-4.44,3.06-12.42,3.06H592.56q-7.59,0-12-3.14a9.93,9.93,0,0,1-4.44-8.54,18.44,18.44,0,0,1,1.79-7.36l1.9-3.95,11.77-26.14h-1.5q-11.17,0-11.17-7.81a10,10,0,0,1,4.44-8.67q4.44-3.11,12.42-3.1h4.59l5.28-11.76,1.1-2.43q4.69-10,14.76-10a10.6,10.6,0,0,1,7,2.47,7.56,7.56,0,0,1,3,6c0,2.28-.87,5.15-2.6,8.63l-3.69,7.09h3.09q12.68,0,12.67,8A9.74,9.74,0,0,1,636.44,87.71Z"/></g></g></svg>